<svg width="83" height="83" viewBox="0 0 83 83" fill="none" xmlns="http://www.w3.org/2000/svg">
<path fill-rule="evenodd" clip-rule="evenodd" d="M23.6283 45.4219C21.733 45.4219 19.8803 44.8599 18.3045 43.807C16.7287 42.7541 15.5005 41.2575 14.7752 39.5065C14.0499 37.7555 13.8602 35.8288 14.2299 33.97C14.5997 32.1111 15.5123 30.4037 16.8524 29.0636C18.1925 27.7234 19.9 26.8108 21.7588 26.441C23.6176 26.0713 25.5444 26.261 27.2953 26.9863C29.0463 27.7116 30.5429 28.9398 31.5958 30.5157C32.6488 32.0915 33.2108 33.9442 33.2108 35.8394C33.2076 38.3799 32.197 40.8154 30.4006 42.6117C28.6042 44.4081 26.1687 45.4187 23.6283 45.4219ZM25.57 34.2569L26.2982 32.8855C25.9763 32.701 25.6423 32.5388 25.2982 32.4001C24.9036 32.2428 24.4883 32.1439 24.0652 32.1064V31.0846H23.3662V32.1064C23.0556 32.136 22.7507 32.2096 22.4608 32.3249C22.1913 32.4304 21.9442 32.5861 21.7327 32.7836C21.5266 32.9844 21.3617 33.2235 21.2472 33.4875C21.1214 33.7827 21.0593 34.1011 21.0652 34.4219C21.0605 34.6633 21.1 34.9035 21.1817 35.1307C21.2603 35.332 21.3811 35.514 21.5361 35.6647C21.7132 35.8331 21.9165 35.9716 22.138 36.0749C22.4151 36.207 22.7025 36.3166 22.9972 36.4025L23.4827 36.5457V37.888C23.2415 37.8568 23.0041 37.8015 22.7739 37.7229C22.5458 37.6452 22.3395 37.5627 22.1574 37.4802C22.0017 37.4094 21.8509 37.3283 21.7059 37.2375C21.6279 37.1889 21.5547 37.1328 21.4875 37.07L20.7594 38.5263C21.14 38.7772 21.5532 38.9748 21.9875 39.1137C22.4357 39.2595 22.8991 39.3539 23.3686 39.3953V40.5797H24.0652V39.4074C24.3785 39.3944 24.6891 39.343 24.9899 39.2545C25.2716 39.1747 25.5358 39.043 25.7691 38.8661C25.9972 38.69 26.1823 38.4642 26.3103 38.2059C26.4501 37.9017 26.519 37.5698 26.5118 37.2351C26.5189 36.944 26.4652 36.6546 26.354 36.3855C26.2525 36.1544 26.1008 35.9488 25.9098 35.7836C25.6991 35.6082 25.4614 35.4681 25.2059 35.3686C24.9024 35.2477 24.592 35.1447 24.2764 35.0603L23.9535 34.9802V33.5967C24.1444 33.6236 24.3322 33.6691 24.5142 33.7326C24.6987 33.7982 24.8686 33.8637 25.0191 33.9341C25.1477 33.9925 25.2725 34.059 25.3928 34.1331C25.4575 34.1676 25.5172 34.2109 25.57 34.2618V34.2569ZM22.7691 34.1671C22.7656 34.2427 22.7797 34.318 22.8105 34.3871C22.8413 34.4562 22.8878 34.5172 22.9463 34.5652C23.1029 34.688 23.2817 34.7795 23.4729 34.8346V33.5919C22.9996 33.6331 22.7642 33.8346 22.7642 34.1792L22.7691 34.1671ZM24.7302 37.3807C24.733 37.3 24.7147 37.2201 24.6773 37.1486C24.6399 37.0771 24.5845 37.0166 24.5166 36.9729C24.341 36.8589 24.1508 36.7691 23.9511 36.7059V37.9195C24.4673 37.9017 24.7253 37.7237 24.7253 37.3855L24.7302 37.3807Z" fill="#F83718"/>
<path fill-rule="evenodd" clip-rule="evenodd" d="M54.1186 25.3857H41.9196C41.6885 25.3857 41.4669 25.2939 41.3034 25.1304C41.14 24.967 41.0482 24.7454 41.0482 24.5143C41.0482 24.2832 41.14 24.0616 41.3034 23.8982C41.4669 23.7347 41.6885 23.6429 41.9196 23.6429H54.1138C54.3449 23.6429 54.5665 23.7347 54.7299 23.8982C54.8933 24.0616 54.9852 24.2832 54.9852 24.5143C54.9852 24.7454 54.8933 24.967 54.7299 25.1304C54.5665 25.2939 54.3449 25.3857 54.1138 25.3857H54.1186Z" fill="#F83718"/>
<path fill-rule="evenodd" clip-rule="evenodd" d="M68.0556 29.7375H41.9196C41.6885 29.7375 41.4669 29.6457 41.3034 29.4823C41.14 29.3189 41.0482 29.0973 41.0482 28.8662C41.0482 28.6351 41.14 28.4134 41.3034 28.25C41.4669 28.0866 41.6885 27.9948 41.9196 27.9948H68.0531C68.2842 27.9948 68.5058 28.0866 68.6692 28.25C68.8326 28.4134 68.9244 28.6351 68.9244 28.8662C68.9244 29.0973 68.8326 29.3189 68.6692 29.4823C68.5058 29.6457 68.2842 29.7375 68.0531 29.7375H68.0556Z" fill="#F83718"/>
<path fill-rule="evenodd" clip-rule="evenodd" d="M54.1186 34.9678H41.9196C41.6885 34.9678 41.4669 34.876 41.3034 34.7126C41.14 34.5492 41.0482 34.3276 41.0482 34.0965C41.0482 33.8654 41.14 33.6437 41.3034 33.4803C41.4669 33.3169 41.6885 33.2251 41.9196 33.2251H54.1138C54.3449 33.2251 54.5665 33.3169 54.7299 33.4803C54.8933 33.6437 54.9852 33.8654 54.9852 34.0965C54.9852 34.3276 54.8933 34.5492 54.7299 34.7126C54.5665 34.876 54.3449 34.9678 54.1138 34.9678H54.1186Z" fill="#F83718"/>
<path fill-rule="evenodd" clip-rule="evenodd" d="M68.0556 39.3249H41.9196C41.6885 39.3249 41.4669 39.2331 41.3034 39.0697C41.14 38.9062 41.0482 38.6846 41.0482 38.4535C41.0482 38.2224 41.14 38.0008 41.3034 37.8374C41.4669 37.674 41.6885 37.5822 41.9196 37.5822H68.0531C68.2842 37.5822 68.5058 37.674 68.6692 37.8374C68.8326 38.0008 68.9244 38.2224 68.9244 38.4535C68.9244 38.6846 68.8326 38.9062 68.6692 39.0697C68.5058 39.2331 68.2842 39.3249 68.0531 39.3249H68.0556Z" fill="#F83718"/>
<path fill-rule="evenodd" clip-rule="evenodd" d="M54.1186 44.5433H41.9196C41.6885 44.5433 41.4669 44.4515 41.3034 44.2881C41.14 44.1247 41.0482 43.9031 41.0482 43.672C41.0482 43.4409 41.14 43.2192 41.3034 43.0558C41.4669 42.8924 41.6885 42.8006 41.9196 42.8006H54.1138C54.3449 42.8006 54.5665 42.8924 54.7299 43.0558C54.8933 43.2192 54.9852 43.4409 54.9852 43.672C54.9852 43.9031 54.8933 44.1247 54.7299 44.2881C54.5665 44.4515 54.3449 44.5433 54.1138 44.5433H54.1186Z" fill="#F83718"/>
<path fill-rule="evenodd" clip-rule="evenodd" d="M68.056 48.9125H41.92C41.8019 48.9187 41.6837 48.9008 41.5727 48.8599C41.4617 48.819 41.3602 48.7559 41.2743 48.6745C41.1885 48.5931 41.1201 48.4951 41.0734 48.3864C41.0267 48.2777 41.0027 48.1606 41.0027 48.0423C41.0027 47.924 41.0267 47.807 41.0734 47.6983C41.1201 47.5896 41.1885 47.4915 41.2743 47.4101C41.3602 47.3287 41.4617 47.2656 41.5727 47.2247C41.6837 47.1838 41.8019 47.1659 41.92 47.1722H68.0535C68.1716 47.1659 68.2898 47.1838 68.4008 47.2247C68.5118 47.2656 68.6133 47.3287 68.6991 47.4101C68.785 47.4915 68.8533 47.5896 68.9 47.6983C68.9467 47.807 68.9708 47.924 68.9708 48.0423C68.9708 48.1606 68.9467 48.2777 68.9 48.3864C68.8533 48.4951 68.785 48.5931 68.6991 48.6745C68.6133 48.7559 68.5118 48.819 68.4008 48.8599C68.2898 48.9008 68.1716 48.9187 68.0535 48.9125H68.056Z" fill="#F83718"/>
<path fill-rule="evenodd" clip-rule="evenodd" d="M36.1844 82.0092H27.9854C27.841 82.0087 27.699 81.9725 27.572 81.9039C27.4449 81.8353 27.3368 81.7364 27.2573 81.616C27.1774 81.4958 27.1289 81.3575 27.1162 81.2138C27.1034 81.0701 27.1269 80.9255 27.1844 80.7931L32.4102 68.599C32.4778 68.4427 32.5896 68.3095 32.7319 68.216C32.8742 68.1224 33.0408 68.0724 33.2111 68.0723H38.3349C38.4621 68.0721 38.5879 68.0999 38.7032 68.1535C38.8186 68.2072 38.9209 68.2854 39.0028 68.3828C39.0847 68.4802 39.1442 68.5944 39.1773 68.7173C39.2104 68.8401 39.2161 68.9688 39.1941 69.0941L37.0412 81.2883C37.0074 81.4913 36.9028 81.6758 36.746 81.8091C36.5891 81.9423 36.3902 82.0158 36.1844 82.0164V82.0092ZM29.2985 80.2664H35.4441L37.2888 69.815H33.7791L29.2985 80.2664Z" fill="#F83718"/>
<path fill-rule="evenodd" clip-rule="evenodd" d="M55.8591 82.0093H47.6625C47.4563 82.0092 47.2568 81.936 47.0995 81.8027C46.9421 81.6694 46.8372 81.4846 46.8033 81.2811L44.6527 69.087C44.6303 68.9618 44.6357 68.8332 44.6685 68.7103C44.7012 68.5874 44.7606 68.4732 44.8423 68.3758C44.9241 68.2783 45.0262 68.2 45.1415 68.1463C45.2568 68.0926 45.3824 68.0649 45.5096 68.0651H50.6333C50.8036 68.0656 50.97 68.1157 51.1122 68.2092C51.2545 68.3028 51.3665 68.4357 51.4344 68.5918L56.66 80.786C56.7166 80.9185 56.7395 81.063 56.7265 81.2064C56.7136 81.3499 56.6653 81.488 56.586 81.6082C56.5066 81.7285 56.3986 81.8272 56.2718 81.8955C56.1449 81.9638 56.0032 81.9995 55.8591 81.9996V82.0093ZM48.3907 80.2666H54.5411L50.0605 69.8151H46.5484L48.3907 80.2666Z" fill="#F83718"/>
<path fill-rule="evenodd" clip-rule="evenodd" d="M47.6624 82.0093H36.1843C36.057 82.0096 35.9313 81.9819 35.816 81.9282C35.7006 81.8745 35.5985 81.7962 35.5168 81.6987C35.4354 81.601 35.3761 81.4868 35.343 81.3641C35.3099 81.2413 35.3038 81.1129 35.325 80.9875L37.4779 68.7909C37.5117 68.5879 37.6163 68.4034 37.7731 68.2701C37.9299 68.1369 38.1289 68.0634 38.3347 68.0627H45.5095C45.7154 68.0629 45.9146 68.1362 46.0715 68.2696C46.2284 68.4029 46.3329 68.5877 46.3662 68.7909L48.5192 80.9851C48.5415 81.1104 48.5361 81.2391 48.5034 81.3621C48.4707 81.4851 48.4113 81.5994 48.3297 81.6971C48.248 81.7947 48.1459 81.8733 48.0306 81.9272C47.9154 81.9812 47.7897 82.0092 47.6624 82.0093ZM37.2255 80.2666H46.6284L44.7837 69.8152H39.0701L37.2255 80.2666Z" fill="#F83718"/>
<path fill-rule="evenodd" clip-rule="evenodd" d="M76.8254 69.8125H7.01952C5.41809 69.8105 3.88283 69.1733 2.75067 68.0407C1.61852 66.9081 0.981998 65.3726 0.980713 63.7712V58.4872C0.980712 58.3729 1.00326 58.2597 1.04708 58.1541C1.0909 58.0486 1.15511 57.9527 1.23605 57.8719C1.317 57.7912 1.41307 57.7273 1.51877 57.6837C1.62447 57.6402 1.73772 57.618 1.85203 57.6183H81.9952C82.1095 57.618 82.2228 57.6402 82.3285 57.6837C82.4342 57.7273 82.5303 57.7912 82.6113 57.8719C82.6922 57.9527 82.7565 58.0486 82.8003 58.1541C82.8441 58.2597 82.8667 58.3729 82.8667 58.4872V63.7712C82.8647 65.3729 82.2275 66.9083 81.095 68.0409C79.9624 69.1734 78.427 69.8105 76.8254 69.8125ZM2.72099 59.3489V63.7615C2.72227 64.9011 3.17554 65.9938 3.98139 66.7996C4.78725 67.6055 5.87987 68.0588 7.01952 68.06H76.8254C77.965 68.0588 79.0576 67.6055 79.8635 66.7996C80.6693 65.9938 81.1226 64.9011 81.1239 63.7615V59.3489H2.72099Z" fill="#F83718"/>
<path fill-rule="evenodd" clip-rule="evenodd" d="M14.9173 80.2664C14.0556 80.2664 13.2133 80.0109 12.4968 79.5321C11.7804 79.0534 11.2219 78.373 10.8922 77.5769C10.5624 76.7808 10.4762 75.9048 10.6443 75.0596C10.8124 74.2145 11.2273 73.4382 11.8366 72.8289C12.4459 72.2196 13.2222 71.8046 14.0673 71.6365C14.9125 71.4684 15.7885 71.5547 16.5846 71.8844C17.3807 72.2142 18.0611 72.7726 18.5399 73.4891C19.0186 74.2056 19.2741 75.0479 19.2741 75.9096C19.2709 77.0641 18.8109 78.1704 17.9945 78.9868C17.1781 79.8032 16.0718 80.2632 14.9173 80.2664ZM14.9173 73.2979C14.4003 73.2979 13.8949 73.4513 13.465 73.7385C13.0352 74.0257 12.7001 74.434 12.5022 74.9117C12.3044 75.3893 12.2526 75.9149 12.3535 76.422C12.4544 76.9291 12.7033 77.3949 13.0689 77.7605C13.4345 78.126 13.9003 78.375 14.4074 78.4759C14.9144 78.5767 15.4401 78.525 15.9177 78.3271C16.3954 78.1293 16.8036 77.7942 17.0908 77.3643C17.3781 76.9345 17.5314 76.429 17.5314 75.912C17.5308 75.2189 17.2551 74.5544 16.765 74.0643C16.2749 73.5742 15.6104 73.2986 14.9173 73.2979Z" fill="#F83718"/>
<path fill-rule="evenodd" clip-rule="evenodd" d="M81.9929 59.3491H1.85204C1.73752 59.3495 1.6241 59.3271 1.51824 59.2835C1.41238 59.2398 1.3162 59.1756 1.23523 59.0946C1.15425 59.0137 1.09005 58.9175 1.04637 58.8116C1.0027 58.7057 0.980396 58.5923 0.980716 58.4778V21.3783C0.983286 18.9767 1.93844 16.6741 3.63663 14.9759C5.33483 13.2778 7.63732 12.3226 10.0389 12.32H73.8035C76.2055 12.3219 78.5087 13.2768 80.2074 14.9751C81.9061 16.6734 82.8616 18.9762 82.8642 21.3783V58.4875C82.8645 58.602 82.8422 58.7155 82.7985 58.8213C82.7548 58.9272 82.6907 59.0234 82.6097 59.1043C82.5287 59.1853 82.4326 59.2495 82.3267 59.2932C82.2208 59.3368 82.1074 59.3592 81.9929 59.3588V59.3491ZM2.72099 57.6088H81.119V21.3783C81.1171 19.438 80.3455 17.5778 78.9736 16.2058C77.6016 14.8338 75.7414 14.0622 73.8011 14.0603H10.0389C8.09867 14.0622 6.23849 14.8338 4.86652 16.2058C3.49456 17.5778 2.72292 19.438 2.72099 21.3783V57.6161V57.6088Z" fill="#F83718"/>
<path fill-rule="evenodd" clip-rule="evenodd" d="M73.5435 9.60646C72.6156 9.60646 71.7085 9.33129 70.9369 8.81576C70.1654 8.30022 69.5641 7.56747 69.209 6.71016C68.8539 5.85286 68.7609 4.9095 68.942 3.99939C69.123 3.08928 69.5698 2.2533 70.2259 1.59714C70.8821 0.940992 71.7181 0.494146 72.6282 0.313114C73.5383 0.132082 74.4817 0.224995 75.339 0.580102C76.1963 0.935209 76.929 1.53656 77.4446 2.30812C77.9601 3.07967 78.2353 3.98677 78.2353 4.91471C78.234 6.15865 77.7393 7.35126 76.8597 8.23086C75.9801 9.11045 74.7875 9.60517 73.5435 9.60646ZM73.5435 1.96568C72.9596 1.9652 72.3885 2.13796 71.9028 2.46208C71.4171 2.78621 71.0384 3.24713 70.8147 3.78654C70.591 4.32595 70.5324 4.91959 70.6462 5.49234C70.76 6.06509 71.0412 6.59122 71.4541 7.00413C71.867 7.41705 72.3931 7.6982 72.9659 7.812C73.5386 7.92581 74.1323 7.86715 74.6717 7.64346C75.2111 7.41977 75.6721 7.0411 75.9962 6.55537C76.3203 6.06963 76.493 5.49866 76.4925 4.91471C76.4919 4.13278 76.181 3.38305 75.6281 2.83014C75.0752 2.27723 74.3255 1.96632 73.5435 1.96568Z" fill="#F83718"/>
</svg>
