<svg width="81" height="81" viewBox="0 0 81 81" fill="none" xmlns="http://www.w3.org/2000/svg">
<path d="M43.6675 41.6276C45.3684 39.9268 45.3684 37.1692 43.6675 35.4683C41.9667 33.7675 39.2091 33.7675 37.5082 35.4683C35.8074 37.1692 35.8074 39.9268 37.5082 41.6276C39.2091 43.3284 41.9667 43.3285 43.6675 41.6276Z" fill="#F83718"/>
<path fill-rule="evenodd" clip-rule="evenodd" d="M48.1037 75.8222H33.0683C32.8201 75.8191 32.5828 75.7191 32.4073 75.5436C32.2318 75.368 32.1318 75.1308 32.1287 74.8826V66.1863C30.3653 65.6436 28.6583 64.9322 27.0313 64.0622L20.8706 70.2205C20.7836 70.3078 20.6801 70.3771 20.5663 70.4243C20.4524 70.4716 20.3303 70.4959 20.207 70.4959C20.0837 70.4959 19.9616 70.4716 19.8477 70.4243C19.7338 70.3771 19.6304 70.3078 19.5434 70.2205L8.9108 59.588C8.73789 59.4104 8.64117 59.1722 8.64117 58.9243C8.64117 58.6765 8.73789 58.4383 8.9108 58.2607L15.0596 52.1071C14.1878 50.4782 13.4756 48.7687 12.9331 47.0026H4.24394C3.99159 47.0026 3.7496 46.9023 3.57117 46.7239C3.39274 46.5455 3.29248 46.3035 3.29248 46.0511V31.0134C3.29561 30.7631 3.3972 30.5241 3.57529 30.3483C3.75339 30.1724 3.99364 30.0738 4.24394 30.0738H12.9426C13.4858 28.3106 14.1971 26.6036 15.0668 24.9764L8.90604 18.8157C8.81896 18.7285 8.75002 18.625 8.70307 18.5111C8.65613 18.3973 8.63214 18.2752 8.63252 18.152C8.63356 17.9036 8.73171 17.6655 8.90604 17.4884L19.5386 6.85587C19.7162 6.68296 19.9544 6.58624 20.2023 6.58624C20.4502 6.58624 20.6882 6.68296 20.8659 6.85587L27.0266 13.0166C28.6538 12.1463 30.3607 11.4342 32.124 10.8901V2.19377C32.124 1.94347 32.2226 1.70322 32.3984 1.52512C32.5743 1.34703 32.8132 1.24544 33.0635 1.24231H48.1013C48.3516 1.24544 48.5905 1.34703 48.7664 1.52512C48.9423 1.70322 49.0409 1.94347 49.0408 2.19377V10.8806C50.8069 11.4243 52.5163 12.1372 54.1454 13.0094L60.299 6.85587C60.3859 6.76827 60.4892 6.69878 60.6031 6.65134C60.717 6.60389 60.8392 6.57944 60.9626 6.57944C61.086 6.57944 61.2082 6.60389 61.3221 6.65134C61.436 6.69878 61.5394 6.76827 61.6263 6.85587L72.2588 17.4861C72.3462 17.5733 72.4155 17.6769 72.4628 17.791C72.5101 17.9051 72.5344 18.0274 72.5344 18.1509C72.5344 18.2744 72.5101 18.3967 72.4628 18.5107C72.4155 18.6248 72.3462 18.7284 72.2588 18.8157L66.0981 24.974C66.9679 26.6014 67.68 28.3083 68.2245 30.0714H76.9209C77.0452 30.0714 77.1683 30.0961 77.2829 30.1441C77.3975 30.1921 77.5015 30.2624 77.5887 30.3509C77.6759 30.4395 77.7447 30.5445 77.7909 30.6599C77.8372 30.7752 77.8599 30.8986 77.858 31.0229V46.0654C77.8584 46.1887 77.8344 46.3108 77.7874 46.4248C77.7405 46.5387 77.6715 46.6424 77.5844 46.7296C77.4974 46.8169 77.394 46.8862 77.2801 46.9334C77.1663 46.9807 77.0441 47.005 76.9209 47.005H68.2341C67.6906 48.7715 66.9785 50.4817 66.1076 52.1119L72.2588 58.2631C72.3461 58.3501 72.4154 58.4536 72.4627 58.5674C72.5099 58.6813 72.5342 58.8034 72.5342 58.9267C72.5342 59.05 72.5099 59.1721 72.4627 59.286C72.4154 59.3998 72.3461 59.5033 72.2588 59.5904L61.6263 70.2229C61.4486 70.3958 61.2105 70.4925 60.9626 70.4925C60.7147 70.4925 60.4766 70.3958 60.299 70.2229L54.1478 64.0693C52.5183 64.9424 50.808 65.6553 49.0408 66.1982V74.885C49.0408 75.1373 48.9406 75.3794 48.7622 75.5578C48.5838 75.7363 48.3417 75.8364 48.0894 75.8364L48.1037 75.8222ZM34.0078 73.9431H47.1713V65.4941C47.1733 65.2899 47.241 65.0917 47.3644 64.929C47.4878 64.7662 47.6602 64.6474 47.8563 64.5902C49.9499 64.0021 51.9643 63.1619 53.8553 62.088C54.0341 61.9864 54.2414 61.9465 54.4452 61.9745C54.6489 62.0024 54.8377 62.0966 54.9827 62.2425L60.9697 68.2296L70.275 58.9243L64.2879 52.9373C64.1424 52.7921 64.0487 52.603 64.0212 52.3993C63.9937 52.1955 64.0339 51.9884 64.1357 51.8098C65.2089 49.9188 66.0484 47.9044 66.6357 45.8109C66.693 45.6144 66.812 45.4417 66.9753 45.3182C67.1386 45.1948 67.3373 45.1274 67.542 45.1259H75.9909V31.9672H67.53C67.3258 31.9651 67.1276 31.8974 66.9648 31.774C66.8021 31.6507 66.6833 31.4783 66.6262 31.2822C66.0384 29.1903 65.1989 27.1775 64.1262 25.288C64.0275 25.1087 63.9894 24.9025 64.0172 24.6999C64.0451 24.4972 64.1376 24.3089 64.2809 24.1629L70.275 18.1687L60.9674 8.86348L54.9779 14.8505C54.8317 14.9943 54.6431 15.0871 54.4399 15.115C54.2368 15.1428 54.03 15.1043 53.8505 15.0051C51.9594 13.9316 49.945 13.0913 47.8515 12.5028C47.6542 12.4477 47.4805 12.3295 47.3567 12.1662C47.233 12.003 47.1662 11.8037 47.1665 11.5989V3.1476H34.0078V11.606C34.0063 11.8106 33.9389 12.0094 33.8154 12.1726C33.692 12.3359 33.5193 12.455 33.3228 12.5123C31.2321 13.1011 29.2203 13.9405 27.331 15.0122C27.1515 15.1123 26.9445 15.1515 26.7408 15.1241C26.5371 15.0966 26.3478 15.004 26.2012 14.86L20.207 8.86348L10.9017 18.1687L16.8983 24.1629C17.0421 24.309 17.1349 24.4978 17.1628 24.701C17.1906 24.9041 17.1521 25.1108 17.0529 25.2903C15.98 27.1793 15.1398 29.1912 14.5506 31.2822C14.4955 31.4794 14.3773 31.6532 14.214 31.7769C14.0508 31.9007 13.8515 31.9675 13.6467 31.9672H5.18825V45.1259H13.6324C13.8372 45.1256 14.0365 45.1924 14.1997 45.3161C14.363 45.4398 14.4812 45.6136 14.5363 45.8109C15.1249 47.9036 15.9651 49.9171 17.0387 51.8074C17.1387 51.9869 17.1779 52.1941 17.1505 52.3977C17.1231 52.6014 17.0304 52.7906 16.8864 52.9373L10.8994 58.9243L20.2023 68.2296L26.1964 62.2354C26.3426 62.0916 26.5313 61.9988 26.7345 61.9709C26.9376 61.9431 27.1444 61.9816 27.3239 62.0808C29.2139 63.1526 31.2266 63.992 33.3181 64.5808C33.5141 64.6379 33.6866 64.7567 33.81 64.9194C33.9334 65.0822 34.001 65.2804 34.0031 65.4846V73.9431H34.0078Z" fill="#F83718"/>
<path fill-rule="evenodd" clip-rule="evenodd" d="M75.3388 9.43421C74.4095 9.43468 73.5009 9.15951 72.728 8.64349C71.9551 8.12747 71.3526 7.39375 70.9968 6.53524C70.6409 5.67673 70.5476 4.73198 70.7288 3.82047C70.91 2.90897 71.3575 2.07168 72.0147 1.41454C72.6718 0.757395 73.5091 0.309922 74.4206 0.128732C75.3321 -0.0524586 76.2768 0.0407579 77.1353 0.396619C77.9939 0.752481 78.7275 1.35498 79.2435 2.1279C79.7595 2.90082 80.0348 3.80943 80.0343 4.73877C80.0324 5.9835 79.5371 7.17669 78.657 8.05685C77.7768 8.937 76.5836 9.43232 75.3388 9.43421ZM75.3388 7.71207C75.9275 7.71207 76.5029 7.53746 76.9923 7.21039C77.4817 6.88331 77.863 6.41848 78.0882 5.87461C78.3134 5.33073 78.3722 4.73226 78.2572 4.15497C78.1422 3.57768 77.8585 3.04751 77.4421 2.63144C77.0257 2.21538 76.4953 1.93217 75.9179 1.81762C75.3405 1.70307 74.7421 1.7623 74.1984 1.98789C73.6547 2.21347 73.1902 2.59527 72.8636 3.08493C72.5369 3.57459 72.3627 4.15014 72.3632 4.73877C72.3657 5.52654 72.6802 6.28119 73.2379 6.83756C73.7956 7.39393 74.5511 7.70668 75.3388 7.70731V7.71207Z" fill="#F83718"/>
<path fill-rule="evenodd" clip-rule="evenodd" d="M7.24345 80.187C5.81882 80.1875 4.4261 79.7655 3.24134 78.9743C2.05658 78.1832 1.133 77.0585 0.587494 75.7424C0.0419876 74.4264 -0.100951 72.9781 0.176691 71.5808C0.454333 70.1835 1.14012 68.8999 2.14732 67.8924C3.15451 66.8849 4.43786 66.1987 5.83508 65.9206C7.2323 65.6424 8.6806 65.7849 9.99683 66.33C11.3131 66.8751 12.4381 67.7982 13.2296 68.9827C14.0211 70.1672 14.4436 71.5598 14.4436 72.9845C14.4417 74.8937 13.6826 76.7242 12.3328 78.0745C10.983 79.4248 9.15269 80.1845 7.24345 80.187ZM7.24345 78.4649C8.32549 78.4649 9.38327 78.144 10.283 77.5428C11.1826 76.9417 11.8838 76.0873 12.2979 75.0876C12.712 74.0879 12.8203 72.9879 12.6092 71.9267C12.3981 70.8654 11.8771 69.8906 11.112 69.1255C10.3469 68.3604 9.37206 67.8393 8.31082 67.6282C7.24957 67.4171 6.14956 67.5255 5.14989 67.9396C4.15021 68.3536 3.29574 69.0549 2.69459 69.9545C2.09344 70.8542 1.77258 71.912 1.77258 72.994C1.77634 74.4438 2.35397 75.8332 3.37915 76.8584C4.40432 77.8835 5.79364 78.4611 7.24345 78.4649Z" fill="#F83718"/>
<path fill-rule="evenodd" clip-rule="evenodd" d="M27.6661 37.5379H36.3553C36.4628 37.0854 36.6427 36.6532 36.8881 36.2582L30.7393 30.1284C28.9539 32.2091 27.8775 34.8043 27.6661 37.5379Z" fill="#F83718"/>
<path fill-rule="evenodd" clip-rule="evenodd" d="M32.1619 28.7012L38.3035 34.8453C38.6979 34.6003 39.1292 34.4204 39.5808 34.3125V25.609C36.8416 25.8232 34.2423 26.9065 32.1619 28.7012Z" fill="#F83718"/>
<path fill-rule="evenodd" clip-rule="evenodd" d="M41.5933 25.609V34.2982C42.0444 34.4063 42.4756 34.5853 42.8706 34.8286L49.0123 28.687C46.9298 26.8978 44.3307 25.8196 41.5933 25.609Z" fill="#F83718"/>
<path fill-rule="evenodd" clip-rule="evenodd" d="M53.515 39.5505H44.8258C44.7184 40.0038 44.5384 40.4367 44.293 40.8326L50.4347 46.9743C52.225 44.8904 53.304 42.2898 53.515 39.5505Z" fill="#F83718"/>
<path fill-rule="evenodd" clip-rule="evenodd" d="M44.8236 37.5382H53.5152C53.3007 34.7983 52.2174 32.1984 50.423 30.1168L44.2837 36.2585C44.5315 36.6531 44.7139 37.0853 44.8236 37.5382Z" fill="#F83718"/>
<path fill-rule="evenodd" clip-rule="evenodd" d="M49.0123 48.394L42.8706 42.2595C42.4764 42.505 42.045 42.6849 41.5933 42.7923V51.4815C44.3319 51.2685 46.9312 50.1869 49.0123 48.394Z" fill="#F83718"/>
<path fill-rule="evenodd" clip-rule="evenodd" d="M39.5809 51.4744V42.7853C39.1287 42.6768 38.6968 42.4969 38.3012 42.2524L32.1595 48.3941C34.2425 50.1844 36.8424 51.2635 39.5809 51.4744Z" fill="#F83718"/>
<path fill-rule="evenodd" clip-rule="evenodd" d="M30.7369 46.9719L36.881 40.8302C36.6355 40.4352 36.4556 40.003 36.3482 39.5505H27.6661C27.8742 42.288 28.9499 44.8877 30.7369 46.9719Z" fill="#F83718"/>
<path fill-rule="evenodd" clip-rule="evenodd" d="M29.3147 48.3967C27.1512 45.932 25.8604 42.8229 25.6421 39.5505H20.5637C20.7931 44.1677 22.6165 48.5625 25.723 51.986L29.3147 48.3967Z" fill="#F83718"/>
<path fill-rule="evenodd" clip-rule="evenodd" d="M20.5637 37.538H25.6421C25.8608 34.2665 27.1515 31.1582 29.3147 28.6942L25.723 25.1049C22.617 28.5277 20.7936 32.9216 20.5637 37.538Z" fill="#F83718"/>
<path fill-rule="evenodd" clip-rule="evenodd" d="M27.1454 23.682L30.7371 27.2714C33.2019 25.1098 36.3098 23.8199 39.5809 23.6011V18.5227C34.9632 18.7501 30.5678 20.5737 27.1454 23.682Z" fill="#F83718"/>
<path fill-rule="evenodd" clip-rule="evenodd" d="M41.5933 23.6011C44.8643 23.8199 47.9723 25.1098 50.4371 27.2714L54.0264 23.682C50.6049 20.5737 46.2102 18.7501 41.5933 18.5227V23.6011Z" fill="#F83718"/>
<path fill-rule="evenodd" clip-rule="evenodd" d="M51.8595 28.7013C54.0221 31.1666 55.3128 34.2754 55.5321 37.5475H60.6105C60.3805 32.93 58.5563 28.5351 55.4488 25.1119L51.8595 28.7013Z" fill="#F83718"/>
<path fill-rule="evenodd" clip-rule="evenodd" d="M60.6105 39.5505H55.5321C55.3135 42.8235 54.0228 45.9332 51.8595 48.3991L55.4488 51.9884C58.5568 48.5646 60.381 44.1689 60.6105 39.5505Z" fill="#F83718"/>
<path fill-rule="evenodd" clip-rule="evenodd" d="M50.4371 49.8186C47.9731 51.9818 44.8648 53.2726 41.5933 53.4912V58.5696C46.2102 58.3402 50.6045 56.5159 54.0264 53.408L50.4371 49.8186Z" fill="#F83718"/>
<path fill-rule="evenodd" clip-rule="evenodd" d="M39.5809 58.5696V53.4912C36.3086 53.2726 33.1996 51.9818 30.7347 49.8186L27.1454 53.408C30.5686 56.5154 34.9634 58.3396 39.5809 58.5696Z" fill="#F83718"/>
</svg>
