<svg width="83" height="82" viewBox="0 0 83 82" fill="none" xmlns="http://www.w3.org/2000/svg">
<path fill-rule="evenodd" clip-rule="evenodd" d="M69.0111 45.5604L63.3485 45.541C63.1174 45.541 62.8957 45.4492 62.7323 45.2858C62.5689 45.1223 62.477 44.9007 62.477 44.6696C62.477 44.4385 62.5689 44.2169 62.7323 44.0535C62.8957 43.8901 63.1174 43.7983 63.3485 43.7983L69.0086 43.8177C71.9653 43.7743 74.7862 42.5693 76.8617 40.4631C78.9372 38.3569 80.1007 35.5186 80.1007 32.5616C80.1007 29.6046 78.9372 26.7664 76.8617 24.6602C74.7862 22.554 71.9653 21.349 69.0086 21.3056C68.8096 21.3056 68.5984 21.3055 68.363 21.325C68.1922 21.3347 68.0223 21.2939 67.8747 21.2075C67.727 21.1212 67.6081 20.9932 67.5329 20.8395C66.6795 19.1133 65.4714 17.5867 63.9876 16.3593C62.5039 15.1319 60.7779 14.2314 58.9223 13.7166C57.0667 13.2019 55.1234 13.0845 53.2194 13.3721C51.3153 13.6597 49.4934 14.3458 47.8727 15.3856C47.7642 15.4557 47.6415 15.5007 47.5135 15.5174C47.3854 15.5342 47.2552 15.5223 47.1323 15.4826C47.0094 15.4428 46.897 15.3763 46.803 15.2878C46.709 15.1992 46.6357 15.0909 46.5887 14.9706C44.9374 10.7804 41.8759 7.29773 37.932 5.12301C33.988 2.9483 29.4088 2.21788 24.984 3.05768C20.5592 3.89749 16.5661 6.2549 13.6932 9.72342C10.8203 13.1919 9.24769 17.5542 9.2465 22.058C9.24654 23.1265 9.33423 24.1931 9.50866 25.2473C9.5445 25.4666 9.49542 25.6914 9.37142 25.8758C9.24742 26.0602 9.05782 26.1904 8.84118 26.24C6.72309 26.7202 4.85634 27.9643 3.59797 29.7344C2.33959 31.5045 1.77791 33.6764 2.02036 35.8347C2.2628 37.9929 3.29231 39.9861 4.91206 41.4329C6.53181 42.8797 8.62811 43.6786 10.7999 43.6769L29.0985 43.7255C29.3296 43.7255 29.5512 43.8173 29.7146 43.9807C29.878 44.1441 29.9698 44.3657 29.9698 44.5968C29.9698 44.8279 29.878 45.0495 29.7146 45.213C29.5512 45.3764 29.3296 45.4682 29.0985 45.4682L10.7999 45.4221C8.26893 45.4229 5.82156 44.5158 3.90255 42.8656C1.98354 41.2153 0.720189 38.9314 0.342067 36.4288C-0.0360554 33.9262 0.496137 31.371 1.84193 29.2274C3.18773 27.0839 5.25784 25.4942 7.67612 24.7473C7.29399 21.7758 7.54952 18.7569 8.42567 15.8919C9.30181 13.0269 10.7784 10.3815 12.7572 8.13194C14.736 5.8824 17.1714 4.08039 19.9013 2.84596C22.6311 1.61153 25.5927 0.97304 28.5887 0.973023C32.6505 0.972338 36.6261 2.14473 40.0376 4.34929C43.449 6.55385 46.1513 9.69675 47.8194 13.4002C49.6032 12.418 51.5637 11.7984 53.588 11.577C55.6122 11.3557 57.6603 11.537 59.6142 12.1105C61.5681 12.6839 63.3894 13.6383 64.973 14.9185C66.5565 16.1988 67.8711 17.7797 68.8412 19.5701H69.0135C72.4613 19.5701 75.7679 20.9398 78.2059 23.3777C80.6438 25.8157 82.0135 29.1223 82.0135 32.5701C82.0135 36.0179 80.6438 39.3245 78.2059 41.7625C75.7679 44.2005 72.4613 45.5701 69.0135 45.5701L69.0111 45.5604Z" fill="#F83718"/>
<path fill-rule="evenodd" clip-rule="evenodd" d="M16.2683 22.0191C16.0372 22.0191 15.8156 21.9273 15.6522 21.7639C15.4888 21.6005 15.397 21.3788 15.397 21.1477C15.4008 17.4492 16.8716 13.9032 19.4866 11.2877C22.1017 8.67218 25.6474 7.20078 29.346 7.19628C29.4645 7.19003 29.5829 7.20796 29.6943 7.24899C29.8056 7.29002 29.9073 7.35329 29.9934 7.43493C30.0794 7.51657 30.148 7.61486 30.1948 7.72385C30.2416 7.83284 30.2658 7.95022 30.2658 8.06885C30.2658 8.18747 30.2416 8.30486 30.1948 8.41384C30.148 8.52283 30.0794 8.62114 29.9934 8.70278C29.9073 8.78442 29.8056 8.84768 29.6943 8.8887C29.5829 8.92973 29.4645 8.94768 29.346 8.94143C26.1099 8.94528 23.0074 10.2325 20.7191 12.5208C18.4308 14.8091 17.1435 17.9116 17.1397 21.1477C17.14 21.2623 17.1177 21.3757 17.074 21.4816C17.0303 21.5874 16.9661 21.6836 16.8852 21.7646C16.8042 21.8456 16.708 21.9097 16.6022 21.9534C16.4963 21.9971 16.3828 22.0194 16.2683 22.0191Z" fill="#F83718"/>
<path fill-rule="evenodd" clip-rule="evenodd" d="M72.9406 10.6842C71.9062 10.6837 70.8952 10.3765 70.0354 9.80149C69.1755 9.22646 68.5054 8.40938 68.1099 7.45358C67.7143 6.49777 67.6111 5.44616 67.8132 4.43169C68.0153 3.41721 68.5137 2.48544 69.2453 1.75417C69.9769 1.0229 70.909 0.524981 71.9235 0.323354C72.9381 0.121728 73.9896 0.225442 74.9452 0.621404C75.9008 1.01737 76.7176 1.6878 77.2923 2.54791C77.8669 3.40802 78.1737 4.4192 78.1737 5.45361C78.1717 6.84068 77.6197 8.17034 76.6387 9.15092C75.6576 10.1315 74.3277 10.6829 72.9406 10.6842ZM72.9406 1.96573C72.2508 1.96573 71.5764 2.1703 71.0028 2.55355C70.4292 2.9368 69.9822 3.48153 69.7182 4.11885C69.4542 4.75618 69.3851 5.45747 69.5197 6.13405C69.6543 6.81063 69.9866 7.4321 70.4743 7.91989C70.9621 8.40768 71.5835 8.73987 72.2601 8.87445C72.9367 9.00903 73.638 8.93996 74.2754 8.67597C74.9127 8.41198 75.4574 7.96493 75.8407 7.39136C76.2239 6.81778 76.4285 6.14345 76.4285 5.45361C76.4279 4.52877 76.0602 3.64199 75.4062 2.98803C74.7523 2.33407 73.8655 1.96638 72.9406 1.96573Z" fill="#F83718"/>
<path fill-rule="evenodd" clip-rule="evenodd" d="M11.0382 73.4632C9.65845 73.4637 8.30949 73.055 7.16202 72.2887C6.01455 71.5225 5.12007 70.4333 4.59173 69.1587C4.06338 67.884 3.92493 66.4814 4.19381 65.128C4.4627 63.7747 5.12684 62.5316 6.10232 61.5557C7.07779 60.5799 8.32077 59.9153 9.674 59.6459C11.0272 59.3766 12.4299 59.5146 13.7047 60.0425C14.9795 60.5704 16.0691 61.4645 16.8357 62.6117C17.6023 63.7589 18.0115 65.1077 18.0115 66.4875C18.009 68.3363 17.2735 70.1088 15.9664 71.4164C14.6592 72.7239 12.8871 73.46 11.0382 73.4632ZM11.0382 61.2544C10.0031 61.254 8.99111 61.5605 8.13022 62.1352C7.26934 62.7099 6.59826 63.527 6.20181 64.4832C5.80536 65.4393 5.70139 66.4916 5.90303 67.5069C6.10468 68.5221 6.60288 69.4548 7.33463 70.1869C8.06639 70.919 8.99879 71.4176 10.014 71.6197C11.0291 71.8218 12.0815 71.7184 13.0378 71.3224C13.9942 70.9264 14.8116 70.2556 15.3867 69.395C15.9618 68.5344 16.2688 67.5226 16.2688 66.4875C16.2675 65.1004 15.7161 63.7705 14.7355 62.7895C13.755 61.8084 12.4253 61.2564 11.0382 61.2544Z" fill="#F83718"/>
<rect x="29.7138" y="26.0725" width="33.0097" height="54.6117" rx="4.97573" fill="white" stroke="#F83718" stroke-width="1.69903"/>
<path d="M29.5923 69.6405H62.602" stroke="#F83718" stroke-width="1.69903"/>
<circle cx="46.3399" cy="74.9802" r="2.18447" fill="#F83718" stroke="#F83718" stroke-width="1.45631"/>
</svg>
