<svg width="74" height="82" viewBox="0 0 74 82" fill="none" xmlns="http://www.w3.org/2000/svg">
<path fill-rule="evenodd" clip-rule="evenodd" d="M26.2918 62.6746C26.1015 62.6756 25.916 62.6151 25.7627 62.5022L22.3793 60.0386L18.9933 62.4973C18.8398 62.6096 18.6547 62.6703 18.4646 62.6706C18.2745 62.6709 18.0891 62.6109 17.9353 62.4992C17.7815 62.3874 17.6671 62.2298 17.6086 62.0489C17.5501 61.868 17.5505 61.6732 17.6098 61.4925L18.9035 57.5144L15.5176 55.0556C15.3649 54.9435 15.2515 54.786 15.1935 54.6057C15.1354 54.4254 15.1357 54.2314 15.1943 54.0513C15.2529 53.8711 15.3668 53.7141 15.5199 53.6024C15.6729 53.4908 15.8572 53.4302 16.0467 53.4294H20.2287L21.5224 49.4512C21.5831 49.2742 21.6977 49.1205 21.85 49.0117C22.0023 48.9029 22.1847 48.8444 22.3719 48.8444C22.5591 48.8444 22.7417 48.9029 22.894 49.0117C23.0463 49.1205 23.1607 49.2742 23.2214 49.4512L24.5151 53.4294H28.6972C28.8866 53.4302 29.0709 53.4908 29.224 53.6024C29.377 53.7141 29.4909 53.8711 29.5495 54.0513C29.6081 54.2314 29.6084 54.4254 29.5504 54.6057C29.4923 54.786 29.379 54.9435 29.2263 55.0556L25.8404 57.5144L27.1341 61.4949C27.1922 61.6752 27.1917 61.8692 27.1329 62.0493C27.074 62.2293 26.9597 62.3862 26.8064 62.4973C26.6577 62.6089 26.4777 62.671 26.2918 62.6746Z" fill="#F83718"/>
<path fill-rule="evenodd" clip-rule="evenodd" d="M42.6996 58.0967C42.5093 58.0974 42.3238 58.037 42.1704 57.9244L37.3161 54.4074L32.4617 57.9244C32.3082 58.0366 32.1232 58.0973 31.9331 58.0976C31.743 58.0979 31.5577 58.0379 31.4038 57.9262C31.25 57.8144 31.1356 57.6568 31.0771 57.4759C31.0186 57.295 31.019 57.1001 31.0783 56.9195L32.9302 51.2278L28.0758 47.7083C27.9218 47.5971 27.807 47.44 27.7479 47.2594C27.6888 47.0788 27.6885 46.8842 27.7471 46.7035C27.8056 46.5228 27.92 46.3652 28.0737 46.2536C28.2274 46.1419 28.4125 46.0819 28.6025 46.0821H34.5903L36.4399 40.388C36.4987 40.2076 36.613 40.0504 36.7664 39.9389C36.9198 39.8273 37.1046 39.767 37.2943 39.7666C37.4844 39.7665 37.6696 39.8265 37.8235 39.9382C37.9775 40.0498 38.0922 40.2072 38.1511 40.388L40.0005 46.0821H45.9885C46.1785 46.0819 46.3636 46.1419 46.5173 46.2536C46.671 46.3652 46.7853 46.5228 46.8438 46.7035C46.9024 46.8842 46.9021 47.0788 46.843 47.2594C46.7839 47.44 46.6692 47.5971 46.5152 47.7083L41.6608 51.2278L43.5102 56.9195C43.5695 57.0998 43.57 57.2944 43.5115 57.475C43.4531 57.6556 43.3387 57.813 43.185 57.9244C43.0445 58.0298 42.8752 58.0899 42.6996 58.0967Z" fill="#F83718"/>
<path fill-rule="evenodd" clip-rule="evenodd" d="M48.6876 62.6747C48.5457 62.6748 48.4058 62.6413 48.2793 62.5769C48.1529 62.5125 48.0434 62.419 47.9601 62.3041C47.8767 62.1892 47.8217 62.0562 47.7997 61.916C47.7777 61.7758 47.7891 61.6324 47.8332 61.4975L49.127 57.5194L45.7411 55.0606C45.5871 54.9494 45.4722 54.7922 45.4132 54.6117C45.3541 54.4311 45.3538 54.2365 45.4123 54.0557C45.4709 53.875 45.5853 53.7175 45.739 53.6058C45.8927 53.4942 46.0778 53.4342 46.2678 53.4344H50.4522L51.7435 49.4562C51.8028 49.2757 51.9175 49.1184 52.0713 49.0069C52.2252 48.8953 52.4102 48.8351 52.6003 48.8349C52.7901 48.8349 52.975 48.895 53.1285 49.0066C53.282 49.1183 53.3962 49.2756 53.4546 49.4562L54.7459 53.4344H58.9304C59.1204 53.4342 59.3055 53.4942 59.4592 53.6058C59.6129 53.7175 59.7273 53.875 59.7858 54.0557C59.8444 54.2365 59.8441 54.4311 59.785 54.6117C59.7259 54.7922 59.6111 54.9494 59.4571 55.0606L56.0736 57.5194L57.3648 61.4999C57.4233 61.6804 57.4231 61.8748 57.3643 62.0552C57.3055 62.2356 57.1911 62.3927 57.0375 62.504C56.8838 62.6153 56.6989 62.6751 56.5091 62.6748C56.3194 62.6745 56.1347 62.6141 55.9814 62.5023L52.6051 60.0388L49.2071 62.5023C49.0565 62.6132 48.8746 62.6735 48.6876 62.6747Z" fill="#F83718"/>
<path fill-rule="evenodd" clip-rule="evenodd" d="M64.811 81.9998H9.26738C6.97971 81.9972 4.78647 81.0873 3.16885 79.4697C1.55122 77.852 0.641242 75.6588 0.638672 73.3711V24.1163C0.641243 21.8288 1.55127 19.6359 3.16896 18.0186C4.78666 16.4014 6.97994 15.492 9.26738 15.4901H64.811C67.0985 15.492 69.2918 16.4014 70.9095 18.0186C72.5272 19.6359 73.4371 21.8288 73.4396 24.1163V73.3687C73.4364 75.6562 72.5264 77.849 70.9089 79.4665C69.2914 81.084 67.0985 81.9941 64.811 81.9973V81.9998ZM9.26738 17.2886C7.45672 17.2912 5.72085 18.0116 4.44051 19.2919C3.16017 20.5723 2.43982 22.308 2.43725 24.1187V73.3711C2.43918 75.182 3.15933 76.9182 4.4398 78.1986C5.72027 79.4791 7.45652 80.1993 9.26738 80.2012H64.811C66.6219 80.1993 68.358 79.4791 69.6385 78.1986C70.919 76.9182 71.6392 75.182 71.6412 73.3711V24.1163C71.6392 22.3054 70.919 20.5693 69.6385 19.2888C68.358 18.0083 66.6219 17.2881 64.811 17.2862L9.26738 17.2886Z" fill="#F83718"/>
<path fill-rule="evenodd" clip-rule="evenodd" d="M72.5395 29.8708H1.53946C1.41743 29.8772 1.29545 29.8587 1.18083 29.8163C1.06621 29.774 0.961424 29.7088 0.87281 29.6246C0.784196 29.5405 0.71363 29.4392 0.665409 29.327C0.617188 29.2147 0.592285 29.0937 0.592285 28.9716C0.592285 28.8494 0.617188 28.7285 0.665409 28.6162C0.71363 28.5039 0.784196 28.4027 0.87281 28.3185C0.961424 28.2344 1.06621 28.1692 1.18083 28.1268C1.29545 28.0845 1.41743 28.066 1.53946 28.0723H72.5395C72.7699 28.0843 72.9869 28.1843 73.1458 28.3516C73.3046 28.5189 73.3932 28.7408 73.3932 28.9716C73.3932 29.2023 73.3046 29.4242 73.1458 29.5916C72.9869 29.7589 72.7699 29.8589 72.5395 29.8708Z" fill="#F83718"/>
<path fill-rule="evenodd" clip-rule="evenodd" d="M27.8255 25.6018C27.2494 25.6018 26.6863 25.4309 26.2073 25.1109C25.7283 24.7908 25.355 24.3359 25.1345 23.8037C24.9141 23.2715 24.8564 22.6859 24.9688 22.1209C25.0812 21.5559 25.3586 21.0369 25.766 20.6296C26.1733 20.2222 26.6922 19.9448 27.2572 19.8325C27.8222 19.7201 28.4079 19.7777 28.9401 19.9982C29.4724 20.2186 29.9272 20.592 30.2472 21.0709C30.5673 21.5499 30.7381 22.1131 30.7381 22.6891C30.7381 23.4616 30.4313 24.2024 29.8851 24.7486C29.3388 25.2949 28.598 25.6018 27.8255 25.6018Z" fill="#F83718"/>
<path fill-rule="evenodd" clip-rule="evenodd" d="M19.7385 25.6018C19.1624 25.6018 18.5994 25.4309 18.1204 25.1109C17.6414 24.7908 17.268 24.3359 17.0476 23.8037C16.8271 23.2715 16.7695 22.6859 16.8819 22.1209C16.9943 21.5559 17.2716 21.0369 17.6789 20.6296C18.0863 20.2222 18.6053 19.9448 19.1703 19.8325C19.7353 19.7201 20.3209 19.7777 20.8531 19.9982C21.3853 20.2186 21.8403 20.592 22.1603 21.0709C22.4804 21.5499 22.6511 22.1131 22.6511 22.6891C22.6511 23.4616 22.3442 24.2024 21.798 24.7486C21.2518 25.2949 20.5109 25.6018 19.7385 25.6018Z" fill="#F83718"/>
<path fill-rule="evenodd" clip-rule="evenodd" d="M11.6486 25.6018C11.0726 25.6018 10.5095 25.4309 10.0305 25.1109C9.55157 24.7908 9.1782 24.3359 8.95775 23.8037C8.7373 23.2715 8.67968 22.6859 8.79207 22.1209C8.90445 21.5559 9.18186 21.0369 9.5892 20.6296C9.99653 20.2222 10.5155 19.9448 11.0805 19.8325C11.6455 19.7201 12.2311 19.7777 12.7633 19.9982C13.2955 20.2186 13.7504 20.592 14.0705 21.0709C14.3905 21.5499 14.5613 22.1131 14.5613 22.6891C14.5613 23.4616 14.2544 24.2024 13.7082 24.7486C13.162 25.2949 12.4211 25.6018 11.6486 25.6018Z" fill="#F83718"/>
<path fill-rule="evenodd" clip-rule="evenodd" d="M65.3502 74.8082H8.72892C8.61089 74.8085 8.49397 74.7855 8.38487 74.7405C8.27577 74.6954 8.17666 74.6293 8.09321 74.5459C8.00975 74.4624 7.94362 74.3632 7.8986 74.2541C7.85359 74.145 7.83049 74.0281 7.83081 73.9101V36.1625C7.83081 35.9243 7.9255 35.6959 8.09392 35.5275C8.26234 35.3591 8.49074 35.2645 8.72892 35.2645H65.3502C65.5884 35.2645 65.8169 35.3591 65.9853 35.5275C66.1538 35.6959 66.2483 35.9243 66.2483 36.1625V73.9101C66.2483 74.1483 66.1538 74.3767 65.9853 74.5452C65.8169 74.7136 65.5884 74.8082 65.3502 74.8082ZM9.6294 73.012H64.4522V37.0606H9.6294V73.012Z" fill="#F83718"/>
<path fill-rule="evenodd" clip-rule="evenodd" d="M65.3498 68.5168H8.72854C8.49812 68.5049 8.28108 68.4049 8.12221 68.2376C7.96335 68.0702 7.87476 67.8483 7.87476 67.6176C7.87476 67.3869 7.96335 67.1649 8.12221 66.9976C8.28108 66.8303 8.49812 66.7303 8.72854 66.7183H65.3498C65.5803 66.7303 65.7973 66.8303 65.9562 66.9976C66.115 67.1649 66.2036 67.3869 66.2036 67.6176C66.2036 67.8483 66.115 68.0702 65.9562 68.2376C65.7973 68.4049 65.5803 68.5049 65.3498 68.5168Z" fill="#F83718"/>
<path fill-rule="evenodd" clip-rule="evenodd" d="M68.0464 10.0993C67.1573 10.0998 66.2879 9.83656 65.5484 9.34292C64.8088 8.84928 64.2322 8.14737 63.8916 7.32604C63.551 6.5047 63.4618 5.6008 63.6349 4.72866C63.8081 3.85653 64.236 3.05535 64.8645 2.42645C65.4931 1.79755 66.294 1.3692 67.1661 1.19556C68.0381 1.02192 68.942 1.1108 69.7636 1.45096C70.5851 1.79111 71.2874 2.36722 71.7814 3.10649C72.2754 3.84577 72.5391 4.71497 72.5391 5.60413C72.5378 6.79551 72.0641 7.93774 71.2219 8.78039C70.3797 9.62305 69.2378 10.0974 68.0464 10.0993ZM68.0464 2.90994C67.513 2.90946 66.9913 3.06724 66.5476 3.36326C66.1038 3.65927 65.7578 4.08024 65.5533 4.57294C65.3489 5.06563 65.2951 5.60792 65.3989 6.13117C65.5027 6.65442 65.7593 7.13515 66.1363 7.51252C66.5133 7.88989 66.9938 8.14692 67.517 8.25116C68.0402 8.35541 68.5825 8.30219 69.0754 8.09816C69.5682 7.89413 69.9896 7.54845 70.286 7.10495C70.5824 6.66144 70.7406 6.14 70.7406 5.60656C70.74 4.892 70.456 4.20682 69.9509 3.70132C69.4459 3.19582 68.761 2.91122 68.0464 2.90994Z" fill="#F83718"/>
<path fill-rule="evenodd" clip-rule="evenodd" d="M15.9179 11.0094C14.8511 11.0094 13.8083 10.693 12.9214 10.1003C12.0344 9.50757 11.3431 8.66513 10.935 7.67951C10.5268 6.69389 10.4202 5.60934 10.6285 4.5631C10.8368 3.51685 11.3507 2.55586 12.1052 1.8017C12.8597 1.04755 13.8208 0.534135 14.8672 0.326311C15.9135 0.118487 16.9981 0.225582 17.9835 0.634153C18.9689 1.04272 19.811 1.73442 20.4033 2.62165C20.9957 3.50887 21.3115 4.55181 21.311 5.61859C21.3091 7.04814 20.7403 8.41852 19.7292 9.42914C18.7182 10.4398 17.3475 11.0081 15.9179 11.0094ZM15.9179 2.02878C15.2068 2.02878 14.5118 2.23965 13.9206 2.63474C13.3294 3.02984 12.8686 3.5914 12.5966 4.24838C12.3246 4.90536 12.2535 5.62823 12.3924 6.32559C12.5313 7.02295 12.874 7.6635 13.3769 8.16613C13.8799 8.66875 14.5206 9.0109 15.2181 9.14933C15.9155 9.28775 16.6384 9.21621 17.2952 8.94376C17.952 8.67132 18.5132 8.21023 18.9079 7.61877C19.3026 7.02731 19.5131 6.33208 19.5126 5.62102C19.5142 5.14783 19.4224 4.67893 19.2425 4.24127C19.0626 3.80361 18.798 3.4058 18.4641 3.07052C18.1302 2.73525 17.7334 2.46911 17.2965 2.28744C16.8595 2.10576 16.3911 2.01209 15.9179 2.01177V2.02878Z" fill="#F83718"/>
</svg>
